<svg width="132" height="80" viewBox="0 0 132 80" fill="none" xmlns="http://www.w3.org/2000/svg">
<path d="M0.384061 78.464L1.28006 55.04H8.44806L10.4961 68.608C12.2027 68.9493 14.0801 69.3333 16.1281 69.76C18.2614 70.1866 20.3521 70.6133 22.4001 71.04C24.5334 71.3813 26.4107 71.68 28.0321 71.936C29.6534 72.1066 30.8054 72.192 31.4881 72.192C31.9147 72.192 32.7254 71.8506 33.9201 71.168C35.2001 70.4853 36.5654 69.6746 38.0161 68.736C39.4667 67.712 40.7467 66.688 41.8561 65.664C43.0507 64.64 43.6907 63.7866 43.7761 63.104C43.9467 62.1653 44.0747 61.0986 44.1601 59.904C44.2454 58.624 44.2881 57.3866 44.2881 56.192C44.2881 54.912 44.2027 53.8026 44.0321 52.864C43.9467 51.9253 43.7761 51.328 43.5201 51.072C42.8374 50.1333 41.4294 48.9386 39.2961 47.488C37.2481 46.0373 34.8587 44.4586 32.1281 42.752C29.4827 40.96 26.7947 39.168 24.0641 37.376C21.4187 35.584 19.0721 33.8773 17.0241 32.256C15.0614 30.6346 13.7387 29.2266 13.0561 28.032C12.8854 27.6053 12.6721 26.7946 12.4161 25.6C12.2454 24.32 12.1174 22.8693 12.0321 21.248C11.9467 19.5413 11.8614 17.92 11.7761 16.384C10.2401 17.5786 9.04539 18.6453 8.19206 19.584C7.42406 20.4373 6.86939 21.2906 6.52806 22.144C6.27206 22.9973 6.14406 24.0213 6.14406 25.216C6.14406 26.5813 6.22939 27.776 6.40006 28.8C6.65606 29.7386 6.95473 30.6346 7.29606 31.488C8.14939 33.1093 9.47206 34.56 11.2641 35.84C13.0561 37.12 15.4454 38.8266 18.4321 40.96C20.3947 42.3253 22.4001 43.7333 24.4481 45.184C26.4961 46.5493 28.4161 47.9146 30.2081 49.28C32.0854 50.56 33.6641 51.7546 34.9441 52.864C36.2241 53.888 37.0347 54.784 37.3761 55.552C37.8027 56.4053 37.9734 57.3866 37.8881 58.496C37.8881 59.52 37.8027 60.3733 37.6321 61.056C37.2907 61.824 36.3947 62.72 34.9441 63.744C33.5787 64.6826 32.2987 65.4506 31.1041 66.048C31.1894 65.024 31.2321 64 31.2321 62.976C31.3174 61.952 31.3174 61.0133 31.2321 60.16C31.2321 59.3066 31.0614 58.6666 30.7201 58.24C30.0374 57.3013 28.6294 56.064 26.4961 54.528C24.4481 52.992 22.0587 51.328 19.3281 49.536C16.5974 47.744 13.8667 45.9093 11.1361 44.032C8.49073 42.1546 6.18673 40.3626 4.22406 38.656C2.34673 36.864 1.23739 35.328 0.896061 34.048C0.640061 33.1093 0.426727 32.0426 0.256061 30.848C0.0853942 29.568 6.10352e-05 28.2453 6.10352e-05 26.88C6.10352e-05 25.5146 0.0427276 24.2346 0.128061 23.04C0.298728 21.76 0.512061 20.6933 0.768061 19.84C1.53606 18.3893 2.77339 16.8106 4.48006 15.104C6.18673 13.312 8.10673 11.5626 10.2401 9.85598C12.4587 8.06398 14.6774 6.48531 16.8961 5.11998C19.2001 3.66931 21.3334 2.51731 23.2961 1.66398C25.3441 0.810646 27.0081 0.38398 28.2881 0.38398C28.8001 0.38398 29.6961 0.426646 30.9761 0.511978C32.3414 0.511978 33.9201 0.59731 35.7121 0.767975C37.5894 0.853307 39.5094 0.981308 41.4721 1.15198C43.5201 1.32264 45.4827 1.53598 47.3601 1.79198C49.2374 2.04798 50.9014 2.30398 52.3521 2.55997L51.3281 24.576H44.1601L42.2401 11.52C40.9601 10.9226 39.4241 10.4106 37.6321 9.98398C35.9254 9.47197 34.2187 9.08797 32.5121 8.83198C30.8054 8.57598 29.3547 8.44798 28.1601 8.44798C27.4774 8.44798 26.8801 8.53331 26.3681 8.70398C25.8561 8.78931 25.4294 8.91731 25.0881 9.08797C24.8321 9.25864 24.6187 9.51465 24.4481 9.85598C24.1067 10.4533 23.8507 11.392 23.6801 12.672C23.5947 13.952 23.5521 15.3173 23.5521 16.768C23.6374 18.1333 23.7654 19.4133 23.9361 20.608C24.1067 21.7173 24.3627 22.4426 24.7041 22.784C25.7281 23.8933 27.1361 25.088 28.9281 26.368C30.8054 27.648 32.8534 28.9706 35.0721 30.336C37.3761 31.7013 39.6801 33.152 41.9841 34.688C44.3734 36.1386 46.5494 37.6746 48.5121 39.296C50.5601 40.832 52.2667 42.368 53.6321 43.904C53.8881 44.928 54.0587 46.3786 54.1441 48.256C54.3147 50.1333 54.4001 52.1386 54.4001 54.272C54.4001 56.32 54.3147 58.24 54.1441 60.032C54.0587 61.824 53.8881 63.1466 53.6321 64C52.8641 65.6213 51.5414 67.3706 49.6641 69.248C47.7867 71.04 45.6534 72.7466 43.2641 74.368C40.9601 75.9893 38.7414 77.312 36.6081 78.336C34.4747 79.2746 32.7681 79.744 31.4881 79.744C29.8667 79.744 27.6907 79.7013 24.9601 79.616C22.3147 79.5306 19.4561 79.4026 16.3841 79.232C13.3121 79.1466 10.3681 79.0186 7.55206 78.848C4.73606 78.7626 2.34673 78.6346 0.384061 78.464ZM70.6381 9.08797L62.7021 7.16798V2.17598C63.7261 2.00531 65.0487 1.83464 66.6701 1.66398C68.2914 1.40798 69.9554 1.19464 71.6621 1.02398C73.3687 0.767977 74.8621 0.59731 76.1421 0.511978C77.4221 0.341309 78.1901 0.255974 78.4461 0.255974C78.7021 0.255974 79.1714 0.554642 79.8541 1.15198C80.5367 1.74931 81.1341 2.43197 81.6461 3.19997C82.2434 3.88264 82.5421 4.35198 82.5421 4.60798V71.04L93.5501 72.96L91.1181 77.696C90.2647 77.7813 88.9421 77.952 87.1501 78.208C85.4434 78.464 83.6941 78.6773 81.9021 78.848C80.1101 79.104 78.5314 79.3173 77.1661 79.488C75.8861 79.6586 75.1607 79.744 74.9901 79.744C74.7341 79.744 74.2647 79.4453 73.5821 78.848C72.8994 78.2506 72.2167 77.6106 71.5341 76.928C70.9367 76.2453 70.6381 75.776 70.6381 75.52V9.08797ZM111.598 75.392V18.816C111.598 16.4266 111.342 14.592 110.83 13.312C110.318 12.032 109.507 11.136 108.398 10.624C107.289 10.112 105.838 9.85598 104.046 9.85598C103.022 9.85598 101.955 10.0693 100.846 10.496C99.7367 10.8373 98.6274 11.3493 97.5181 12.032C96.4941 12.6293 95.4701 13.312 94.4461 14.08L89.5821 9.08797C90.6914 8.40531 91.9714 7.59465 93.4221 6.65598C94.9581 5.63198 96.4941 4.65064 98.0301 3.71198C99.5661 2.77331 100.889 2.00531 101.998 1.40797C103.193 0.725311 103.961 0.341311 104.302 0.255974C106.606 0.0853093 109.123 0.21331 111.854 0.639977C114.67 1.06664 116.974 1.83464 118.766 2.94398C120.131 4.56531 121.241 6.78398 122.094 9.59998C123.033 12.416 123.502 15.744 123.502 19.584V70.912L131.438 72.832V77.824C130.414 77.9946 129.091 78.208 127.47 78.464C125.849 78.6346 124.185 78.8053 122.478 78.976C120.771 79.232 119.278 79.4026 117.998 79.488C116.718 79.6586 115.95 79.744 115.694 79.744C115.438 79.744 114.969 79.4026 114.286 78.72C113.603 78.1226 112.963 77.4826 112.366 76.8C111.854 76.1173 111.598 75.648 111.598 75.392ZM96.2381 9.08797V65.664C96.2381 66.176 96.0247 67.1146 95.5981 68.48C95.1714 69.76 94.4887 71.2533 93.5501 72.96H89.5821V9.08797H96.2381Z" fill="#182828"/>
</svg>
